PathFileType	4	(X/Y/Z)	/Users/itak/Documents/Research/Walk-IL/dataset/trc/00555_00009.trc
DataRate	CameraRate	NumFrames	NumMarkers	Units	OrigDataRate	OrigDataStartFrame	OrigNumFrames
100.000000	100.000000	4	56	mm	100.000000	232	372
Frame#	Time	RPSI			LPSI			L3			STRN			T10			C7			CLAV			RBAK			LBAK			LSHO			LUPA			LAEL			LAOL			LWTS			LWPS			LFRA			LIFD			LHPS			LHTS			RSHO			RUPA			RAEL			RAOL			RWTS			RWPS			RFRA			RIFD			RHTS			RHPS			RBHD			LFHD			RFHD			LBHD			LHIP			RHIP			RASI			LASI			LKNE			LTHI			LANK			LTIP			LTOE			LMT1			LMT5			LHEE			RKNE			RTHI			RANK			RTIP			RTOE			RMT1			RMT5			RHEE			*53			*54			*55			
		X1	Y1	Z1	X2	Y2	Z2	X3	Y3	Z3	X4	Y4	Z4	X5	Y5	Z5	X6	Y6	Z6	X7	Y7	Z7	X8	Y8	Z8	X9	Y9	Z9	X10	Y10	Z10	X11	Y11	Z11	X12	Y12	Z12	X13	Y13	Z13	X14	Y14	Z14	X15	Y15	Z15	X16	Y16	Z16	X17	Y17	Z17	X18	Y18	Z18	X19	Y19	Z19	X20	Y20	Z20	X21	Y21	Z21	X22	Y22	Z22	X23	Y23	Z23	X24	Y24	Z24	X25	Y25	Z25	X26	Y26	Z26	X27	Y27	Z27	X28	Y28	Z28	X29	Y29	Z29	X30	Y30	Z30	X31	Y31	Z31	X32	Y32	Z32	X33	Y33	Z33	X34	Y34	Z34	X35	Y35	Z35	X36	Y36	Z36	X37	Y37	Z37	X38	Y38	Z38	X39	Y39	Z39	X40	Y40	Z40	X41	Y41	Z41	X42	Y42	Z42	X43	Y43	Z43	X44	Y44	Z44	X45	Y45	Z45	X46	Y46	Z46	X47	Y47	Z47	X48	Y48	Z48	X49	Y49	Z49	X50	Y50	Z50	X51	Y51	Z51	X52	Y52	Z52	X53	Y53	Z53	X54	Y54	Z54	X55	Y55	Z55	X56	Y56	Z56	

233	2.32	469.163818359375	954.712158203125	459.9844970703125	474.7924499511719	977.7207641601562	331.7564086914062	486.1952819824219	1065.0791015625	381.5622863769531	722.3218383789062	1241.406982421875	434.8038024902344	489.6899108886719	1186.43359375	368.4361572265625	541.1438598632812	1458.219970703125	396.98876953125	705.8121948242188	1353.148803710938	440.1536560058594	447.2893371582031	1332.695068359375	449.5809020996094	531.3651123046875	1414.604125976562	294.5378723144531	654.14990234375	1442.751098632812	261.2048950195312	698.565673828125	1339.170166015625	170.5464477539062	795.44287109375	1165.144287109375	134.4857177734375	720.3363647460938	1098.855346679688	115.8727951049805	951.8787841796875	1077.761962890625	311.5375671386719	999.8226318359375	1041.449096679688	248.2477722167969	863.2369384765625	1127.703002929688	167.4722442626953	1053.486938476562	981.1805419921875	388.63232421875	1039.04345703125	1016.741027832031	287.3729858398438	1022.441772460938	1056.662719726562	340.3070983886719	546.1408081054688	1422.527587890625	559.2457275390625	493.7823486328125	1369.756225585938	613.2799682617188	393.0394897460938	1104.920532226562	659.2841186523438	349.7965698242188	1093.2705078125	613.6126708984375	512.868408203125	880.96533203125	696.997314453125	439.0672607421875	863.672607421875	728.5870971679688	391.078369140625	1049.774169921875	672.9976806640625	515.9972534179688	712.3338623046875	717.970458984375	526.7223510742188	794.01904296875	736.0516967773438	453.1860961914062	792.6734619140625	746.4595336914062	646.1625366210938	1634.957763671875	505.5014953613281	817.3304443359375	1620.89990234375	388.6477966308594	784.3409423828125	1617.498046875	529.6058959960938	691.2311401367188	1635.983032226562	346.5748291015625	590.9827880859375	909.4469604492188	194.1604919433594	597.3816528320312	889.1809692382812	574.2534790039062	679.8901977539062	920.1019897460938	518.5515747070312	676.3880004882812	924.080078125	243.0964965820312	507.9053649902344	467.5583801269531	242.0181121826172	552.4790649414062	632.0574340820312	209.1020355224609	209.8578338623047	77.81727600097656	238.8197937011719	333.9981079101562	272.0462646484375	235.3903503417969	406.9840393066406	38.69763946533203	304.313232421875	337.5021667480469	52.39690399169922	336.3245849609375	326.0455627441406	39.98956298828125	230.7029571533203	144.2437286376953	108.0828094482422	287.2806396484375	827.6084594726562	522.8831787109375	601.9330444335938	677.3704833984375	769.2520751953125	590.3168334960938	975.7578125	45.05046081542969	598.248779296875	899.790283203125	394.7161865234375	607.0017700195312	1182.490478515625	106.6808166503906	623.8571166992188	1132.233032226562	110.886589050293	568.7868041992188	1097.508056640625	53.37480163574219	647.9724731445312	936.3211059570312	51.44050979614258	530.4862060546875	nan	nan	nan	nan	nan	nan	nan	nan	nan	
234	2.33	490.5766296386719	952.4220581054688	467.5757751464844	495.2542419433594	975.6287231445312	339.3830261230469	506.5780334472656	1062.5166015625	388.3290100097656	741.0706787109375	1240.408081054688	439.4134216308594	508.8560791015625	1183.48828125	374.0127563476562	557.8750610351562	1455.85986328125	401.8551940917969	723.5025024414062	1352.032836914062	444.7768859863281	465.4385986328125	1329.498413085938	454.6501770019531	547.8522338867188	1412.069946289062	299.7360229492188	670.4360961914062	1441.04736328125	265.7507934570312	714.8345336914062	1337.640747070312	174.798095703125	812.2604370117188	1164.550659179688	138.4757080078125	737.888916015625	1097.342895507812	120.0811233520508	969.0607299804688	1081.234252929688	316.8478088378906	1017.891479492188	1045.30517578125	253.9926147460938	880.2681274414062	1128.554077148438	171.9394073486328	1072.002075195312	986.8041381835938	395.02587890625	1057.327270507812	1021.525207519531	293.4780578613281	1039.771118164062	1061.421752929688	346.0725402832031	563.4259643554688	1420.701782226562	564.1660766601562	511.0468139648438	1368.029174804688	618.09423828125	408.9928283691406	1103.601806640625	663.3885498046875	366.5018005371094	1091.917724609375	616.9176635742188	527.27783203125	879.4114379882812	704.8184814453125	452.3782043457031	862.4357299804688	734.3136596679688	406.5135498046875	1048.537231445312	677.2846069335938	529.0419921875	711.0053100585938	727.1265258789062	539.6289672851562	792.7249145507812	745.0115356445312	465.7427368164062	791.7003784179688	753.1845703125	662.14892578125	1633.459838867188	510.16064453125	833.2830810546875	1620.112915039062	393.1209106445312	800.45068359375	1616.758056640625	534.1464233398438	707.0507202148438	1634.483764648438	351.191162109375	609.5928955078125	908.0556640625	199.6961822509766	620.5621337890625	887.4133911132812	580.0691528320312	702.09423828125	918.3978881835938	522.8114624023438	695.9423828125	922.5309448242188	247.2963104248047	525.6351928710938	466.0475463867188	243.6640167236328	570.9090576171875	630.8416137695312	212.1634368896484	213.5770263671875	86.06129455566406	240.2967224121094	345.3612976074219	276.5252075195312	237.2732849121094	406.8688049316406	38.43084335327148	304.3175964355469	339.3853149414062	53.91170120239258	336.7095947265625	326.8294677734375	41.25791549682617	231.2313537597656	150.8095855712891	120.3092422485352	289.4828186035156	849.9115600585938	520.7977294921875	605.3088989257812	700.5481567382812	767.5755004882812	595.8614501953125	993.7852172851562	43.18992614746094	598.265380859375	921.320556640625	392.1549377441406	609.1968383789062	1202.804809570312	99.73686981201172	621.8837280273438	1151.05517578125	105.9834365844727	567.7799682617188	1116.46435546875	49.41229629516602	647.040771484375	953.8836059570312	50.60395431518555	531.0559692382812	nan	nan	nan	nan	nan	nan	nan	nan	nan	
235	2.34	511.7319030761719	949.9230346679688	474.7383117675781	515.8218994140625	973.0801391601562	346.511474609375	526.8987426757812	1059.699584960938	394.8306579589844	759.8069458007812	1239.151489257812	444.0734252929688	527.8997192382812	1180.426147460938	379.7376708984375	574.7073364257812	1453.32958984375	406.9252014160156	741.2822875976562	1350.6572265625	449.4158935546875	483.479248046875	1326.285766601562	460.1649169921875	564.404296875	1409.276977539062	305.1448364257812	686.7119140625	1439.017944335938	270.3222351074219	730.8191528320312	1335.672485351562	179.0117492675781	828.3919677734375	1163.356811523438	142.2144470214844	754.6365356445312	1095.309326171875	124.2500381469727	985.7095947265625	1083.990356445312	321.5879211425781	1035.264282226562	1048.363159179688	259.0967712402344	896.6077270507812	1128.721557617188	176.0345916748047	1090.02490234375	991.7587890625	400.6896667480469	1074.981689453125	1025.527221679688	298.8482666015625	1056.608520507812	1065.47509765625	351.1276550292969	581.0157470703125	1418.611328125	569.3121337890625	528.8231201171875	1365.93017578125	623.260498046875	426.1419982910156	1101.699340820312	668.0599365234375	384.2285766601562	1089.989013671875	620.951416015625	542.7445678710938	877.0684204101562	712.4420776367188	466.9739379882812	860.6273803710938	740.3726806640625	423.18505859375	1046.724975585938	682.1137084960938	542.808837890625	708.9022216796875	736.1026611328125	553.627685546875	790.5943603515625	753.5870361328125	479.5166625976562	790.1351318359375	760.1187133789062	678.3751220703125	1631.711181640625	514.9257202148438	849.3842163085938	1619.026489257812	397.5740661621094	816.7999877929688	1615.722900390625	538.6895141601562	722.997802734375	1632.731567382812	355.8812255859375	628.9403686523438	906.1063842773438	205.3065032958984	643.169921875	885.702392578125	585.8950805664062	723.8841552734375	916.7169799804688	527.34521484375	715.9225463867188	920.7354736328125	251.8190765380859	545.8013916015625	463.5697631835938	245.5088043212891	591.2481079101562	628.8719482421875	215.6176452636719	218.3837890625	95.46433258056641	242.1117095947266	358.588623046875	281.0174865722656	239.3867950439453	406.7115478515625	38.05666351318359	304.2919921875	341.6723022460938	55.53155899047852	337.1908264160156	327.7810363769531	43.1074333190918	231.8321685791016	159.0717468261719	133.7875366210938	292.1724243164062	872.2399291992188	518.809326171875	608.7348022460938	723.666015625	766.57177734375	601.7929077148438	1006.6513671875	40.7091064453125	596.4404296875	941.8687744140625	388.8150634765625	610.8448486328125	1218.405395507812	90.9793701171875	617.5165405273438	1165.405517578125	98.51776885986328	564.216552734375	1130.139526367188	45.35534286499023	644.4691162109375	966.4691772460938	48.40850830078125	529.6928100585938	nan	nan	nan	nan	nan	nan	nan	nan	nan	
236	2.35	532.5242309570312	947.2618408203125	481.3351135253906	536.4478759765625	970.0537109375	352.9711303710938	547.072509765625	1056.680786132812	400.9664611816406	778.4984741210938	1237.647338867188	448.77294921875	546.7911987304688	1177.3076171875	385.5442199707031	591.6472778320312	1450.676025390625	412.1881713867188	759.1362915039062	1349.037719726562	454.0626220703125	501.3890380859375	1323.103393554688	466.0718383789062	581.0567016601562	1406.289428710938	310.72412109375	703.015869140625	1436.716918945312	274.9228515625	746.5703735351562	1333.31982421875	183.2131652832031	843.837890625	1161.592651367188	145.7319183349609	770.5618286132812	1092.800415039062	128.4103698730469	1001.846801757812	1086.003173828125	325.7568359375	1051.943603515625	1050.571044921875	263.551513671875	912.2561645507812	1128.207153320312	179.7735137939453	1107.56640625	996.00439453125	405.6133728027344	1092.007568359375	1028.683349609375	303.4747924804688	1072.98291015625	1068.78271484375	355.4511413574219	598.8860473632812	1416.247192382812	574.6530151367188	547.0734252929688	1363.452880859375	628.7542724609375	444.4647216796875	1099.20849609375	673.31103515625	402.9322509765625	1087.46875	625.7386474609375	559.3278198242188	873.94140625	719.8056640625	482.9594116210938	858.2575073242188	746.8173217773438	441.0857849121094	1044.330810546875	687.5110473632812	557.3930053710938	705.9954833984375	744.7786254882812	568.83935546875	787.6070556640625	761.6681518554688	494.6372680664062	787.9721069335938	767.2826538085938	694.8482055664062	1629.7392578125	519.7809448242188	865.646728515625	1617.671630859375	402.00439453125	833.3955688476562	1614.4052734375	543.2356567382812	739.087158203125	1630.763549804688	360.6369323730469	649.0779418945312	903.490478515625	210.9554901123047	665.0220336914062	884.0634155273438	591.7212524414062	745.1375732421875	915.1464233398438	532.2426147460938	736.310791015625	918.5894165039062	256.7556762695312	568.283447265625	460.0812072753906	247.5779724121094	613.358154296875	626.0791015625	219.42333984375	224.5965881347656	106.1063613891602	244.2014923095703	373.7904663085938	285.4895324707031	241.7097625732422	406.6612548828125	37.54919815063477	304.2338562011719	344.534423828125	57.37033843994141	337.7416381835938	329.1054077148438	45.76332092285156	232.5090789794922	169.3137817382812	148.4733428955078	295.2673950195312	894.46484375	516.8511962890625	612.0437622070312	746.54345703125	766.0527954101562	608.0724487304688	1015.166870117188	38.1413688659668	593.3123779296875	961.5408935546875	384.8899841308594	611.9137573242188	1229.997924804688	81.29011535644531	611.3646850585938	1175.995971679688	89.2586669921875	558.6143798828125	1139.358642578125	41.90407943725586	640.798583984375	974.8790893554688	45.09794998168945	526.8853149414062	nan	nan	nan	nan	nan	nan	nan	nan	nan	
